Coordinates
version=1
nRows=19
nColumns=36
inDegrees=yes

Units are S.I. units (second, meters, Newtons, ...)
If the header above contains a line with 'inDegrees', this indicates whether rotational values are in degrees (yes) or radians (no).

endheader
time	pelvis_tilt	pelvis_list	pelvis_rotation	pelvis_tx	pelvis_ty	pelvis_tz	hip_flexion_r	hip_adduction_r	hip_rotation_r	knee_angle_r	knee_angle_r_beta	ankle_angle_r	subtalar_angle_r	mtp_angle_r	hip_flexion_l	hip_adduction_l	hip_rotation_l	knee_angle_l	knee_angle_l_beta	ankle_angle_l	subtalar_angle_l	mtp_angle_l	lumbar_extension	lumbar_bending	lumbar_rotation	arm_flex_r	arm_add_r	arm_rot_r	elbow_flex_r	pro_sup_r	arm_flex_l	arm_add_l	arm_rot_l	elbow_flex_l	pro_sup_l
     10.48333330	      3.99102868	     13.46429971	      2.79304157	     -0.15283604	      0.94230186	      0.18236841	      5.22296548	     -5.57066166	     -1.40881019	     14.49693834	      0.25301931	     14.90347191	      9.22244746	     -7.49999987	     58.57793693	     -1.21147422	     -9.66149963	     37.88806336	      0.66127145	     -8.31386916	      2.76292152	     -7.49999987	    -16.79733466	     -7.20169558	      3.47103844	     54.29567010	     19.83872927	     73.57692479	    132.54286359	     97.44217287	     68.38804279	     23.66402691	     72.81350093	    123.95584883	     68.11650805
     10.50000000	      3.97535651	     13.36017734	      2.52449889	     -0.15526745	      0.94349868	      0.18298007	      5.69431750	     -5.45713630	     -1.07700755	     15.05129542	      0.26269466	     15.43228600	      9.39463508	     -7.49999987	     58.25088180	     -1.42607285	     -9.53120492	     37.73032672	      0.65851843	     -8.43292202	      2.70965034	     -7.49999987	    -17.24355735	     -7.11093751	      3.58943223	     54.40358570	     19.97802841	     73.84329341	    132.60911154	     99.48899502	     68.49054293	     23.63933830	     73.04401488	    123.79004611	     68.66355669
     10.51666670	      4.03133629	     13.39260819	      2.25755578	     -0.15327211	      0.94354600	      0.18265283	      5.79792227	     -5.49980813	     -0.68860583	     15.31305749	      0.26726327	     15.79329359	      9.33992123	     -7.49999987	     57.74335805	     -1.51288106	     -9.53906418	     37.31924134	      0.65134364	     -8.80684631	      2.65150547	     -7.49999987	    -17.57196767	     -7.10025838	      3.67840467	     54.48377470	     19.93347540	     73.89475240	    132.56957438	     98.46544846	     68.34481954	     23.71710921	     73.18717603	    124.03254674	     68.53989958
     10.53333330	      4.00818857	     13.12901572	      2.15306607	     -0.14843848	      0.94348552	      0.18174214	      6.10493331	     -5.32222016	     -0.50171488	     15.89551182	      0.27742902	     16.62494931	      8.94172947	     -7.49999987	     57.36045741	     -1.68832582	     -9.30177217	     37.35840974	      0.65202725	     -8.90440623	      2.57713120	     -7.49999987	    -17.62457400	     -6.64059852	      3.89721906	     54.24071640	     19.90708956	     74.33549434	    132.47592866	     97.41323767	     67.81830188	     23.63614452	     73.20201608	    124.01180073	     68.34023358
     10.55000000	      4.05282331	     12.93204805	      2.06263953	     -0.14487983	      0.93967571	      0.18140616	      6.22028390	     -5.23642795	     -0.50487497	     16.61516466	      0.28998933	     17.48993749	      8.61111911	     -7.49999987	     56.94316571	     -1.79023834	     -8.90754281	     37.34008890	      0.65170749	     -8.73293729	      2.19100721	     -7.49999987	    -17.75115041	     -6.32397217	      3.90585565	     54.35011932	     20.05339998	     74.91557410	    132.47582123	     97.70698310	     67.75465420	     23.62414102	     72.95959482	    124.02781666	     68.44698683
     10.56666670	      3.69836938	     12.78368616	      2.10868014	     -0.14587917	      0.93962530	      0.18135746	      6.96680242	     -5.15673793	     -0.09917536	     17.46630711	      0.30484457	     18.76029278	      8.06088232	     -7.49999987	     56.97266262	     -1.83145159	     -8.70645451	     37.56323632	      0.65560215	     -8.50464330	      2.28812272	     -7.49999987	    -17.44048143	     -6.02928362	      3.83131704	     53.93147659	     20.08191334	     75.22279976	    132.42768500	     96.32343848	     67.44944160	     23.45487054	     72.80257243	    124.06494639	     68.21092322
     10.58333330	      3.49590692	     12.58077128	      1.91897331	     -0.14942341	      0.93822866	      0.18043064	      7.98786987	     -5.01147576	      0.40125911	     18.60076638	      0.32464462	     20.29842090	      7.73119162	     -7.49999987	     56.89426076	     -1.98933046	     -8.51342193	     37.73874582	      0.65866537	     -8.43622062	      2.17294145	     -7.49999987	    -17.46663122	     -5.70551727	      3.76339202	     54.26920319	     20.36203807	     75.72080016	    132.47877010	     95.38708255	     67.84107699	     23.28122710	     72.43398502	    124.15781665	     68.13315276
     10.60000000	      3.35532715	     12.29819216	      1.59127361	     -0.14977389	      0.94073915	      0.18094596	      8.93220826	     -4.68325067	      0.95969522	     19.42393011	      0.33901153	     21.00785782	      7.23773967	     -7.49999987	     56.51269917	     -2.20933711	     -8.24230161	     37.20625332	      0.64937162	     -8.62062781	      2.12686539	     -7.49999987	    -17.56266573	     -5.24349821	      3.79418623	     54.36889544	     20.32629072	     76.16473163	    132.49789582	     94.41466007	     67.89458386	     23.12213934	     72.31071018	    124.33801956	     67.98996095
     10.61666670	      3.26630764	     12.09211744	      1.55934262	     -0.14702377	      0.93542195	      0.18104423	      9.50559024	     -4.44285794	      1.19253753	     19.58317754	      0.34179093	     21.80960645	      6.96583098	     -7.49999987	     56.13883127	     -2.22855472	     -8.05704424	     36.90871963	      0.64417868	     -8.58742323	      2.13228379	     -7.49999987	    -17.65770185	     -5.00524877	      3.73220800	     54.46413415	     20.46014900	     76.27811170	    132.37006839	     94.39085024	     67.85619383	     23.29069693	     72.29790678	    124.30338977	     68.00174082
     10.63333330	      2.95062683	     12.03585989	      1.37614666	     -0.14942570	      0.93117404	      0.18047840	     10.49126020	     -4.31614424	      1.69283556	     20.02790104	      0.34955282	     22.78834489	      6.56762051	     -7.49999987	     56.25005582	     -2.28285644	     -8.04837992	     36.99799662	      0.64573686	     -8.78133902	      1.93974743	     -7.49999987	    -17.67669261	     -4.93085335	      3.64252627	     55.19658943	     20.79508544	     76.91703927	    132.40196270	     94.76507724	     68.23857045	     23.17349741	     71.83990070	    124.57335024	     68.12558352
     10.65000000	      2.69879889	     11.80711310	      1.71352795	     -0.14852333	      0.92882501	      0.17998669	     11.34652353	     -4.08258295	      1.91212244	     20.85922730	      0.36406220	     23.61127697	      5.84246351	     -7.49999987	     56.26778615	     -2.07229122	     -7.69558399	     36.93915740	      0.64470992	     -9.09269281	      1.71638965	     -7.49999987	    -17.61146133	     -4.52757186	      3.60425053	     55.65188552	     20.66018469	     76.97203155	    132.21376277	     94.39437426	     68.35579418	     23.34376530	     71.83388464	    124.95440677	     68.13335988
     10.66666670	      2.50860780	     11.60900854	      1.85300599	     -0.14937892	      0.92732523	      0.18102576	     12.41069642	     -3.77317733	      2.35956453	     22.25738947	      0.38846473	     24.13197596	      5.17616954	     -7.49999987	     56.01020875	     -2.00966472	     -7.69681671	     36.66882351	      0.63999170	     -9.70948566	      1.27245831	     -7.49999987	    -17.69566741	     -4.17793429	      3.64845741	     55.84953272	     20.63338566	     77.03122537	    132.00688833	    101.08774783	     68.30954751	     23.39905415	     72.12406504	    125.14180078	     70.66847854
     10.68333330	      2.54602205	     11.45424891	      1.97997205	     -0.14884815	      0.92577145	      0.18142536	     13.45647300	     -3.55732018	      2.57988408	     24.24210008	      0.42310446	     24.73542817	      4.33428338	     -7.49999987	     55.47772117	     -1.91603210	     -7.63534618	     36.43068435	      0.63583539	    -10.36247452	      0.73146491	     -7.49999987	    -18.10473945	     -3.88319751	      3.59934930	     56.06974408	     20.39920663	     77.32607425	    131.95397421	     99.23023951	     68.49697390	     23.37893765	     72.44800217	    125.38041960	     70.43936759
     10.70000000	      2.62016630	     11.41586509	      2.18474111	     -0.15270096	      0.92067859	      0.18193944	     14.95110303	     -3.41434402	      2.90916025	     26.61569746	      0.46453155	     25.08624836	      3.77716094	     -7.49999987	     54.90979173	     -1.75444531	     -7.78551557	     36.17088853	      0.63130110	    -11.34940741	     -0.04506177	     -7.49999987	    -18.66826615	     -3.80191053	      3.67888764	     56.33860800	     20.33603527	     77.60558624	    131.90003919	    100.85520891	     68.96934144	     23.51452095	     72.82790855	    125.48256102	     70.51139948
     10.71666670	      2.71061393	     11.11329466	      2.21596062	     -0.14992931	      0.91535240	      0.18057660	     16.43861034	     -3.01286508	      3.02399011	     29.42098921	      0.51349313	     25.37025071	      2.95073853	     -7.49999987	     54.48309699	     -1.82251183	     -7.54531152	     36.22141909	      0.63218302	    -11.51142507	     -0.54187443	     -7.49999987	    -19.25468332	     -3.35802807	      3.20815189	     56.28177200	     20.43453497	     77.49072087	    131.80479687	     99.99888301	     69.42371003	     22.96886514	     72.51327715	    125.41668847	     70.40084867
     10.73333330	      2.71464974	     11.29188704	      2.33130297	     -0.14621006	      0.91180483	      0.18021363	     17.36733707	     -3.17272680	      2.91156691	     31.74891919	      0.55412317	     25.24400685	      2.60068774	     -7.49999987	     53.73562435	     -1.47277550	     -7.71156055	     35.47473997	      0.61915101	    -12.09302029	     -1.14667726	     -7.49999987	    -19.57148862	     -3.49251038	      2.84163661	     56.09196078	     20.27431999	     76.94141331	    131.71747065	    100.14847104	     69.25579852	     22.37142932	     72.36440576	    125.39406413	     70.42077183
     10.75000000	      2.77472571	     11.17955584	      2.35407291	     -0.15069274	      0.90924956	      0.18048656	     18.31868229	     -3.01349904	      2.81723732	     33.72888530	      0.58868010	     25.21909506	      2.34906862	     -7.49999987	     53.27740123	     -1.40653187	     -7.66849326	     34.90015551	      0.60912262	    -12.45104021	     -1.36627801	     -7.49999987	    -20.31132444	     -3.29505422	      2.66325906	     55.95385961	     19.87124499	     76.54233930	    131.73872999	    100.20973083	     69.42975469	     22.23835531	     72.67506679	    125.49755547	     70.46569758
     10.76666670	      2.70910160	     11.28850853	      2.55237365	     -0.14641550	      0.89781607	      0.17869283	     19.38393438	     -3.19305818	      2.50244139	     36.04338059	      0.62907566	     25.54902319	      2.32772929	     -7.49999987	     53.08853300	     -1.07339915	     -7.69980490	     34.52021233	      0.60249136	    -12.58213080	     -1.99817102	     -7.49999987	    -20.75140510	     -3.41669862	      2.62139862	     55.91603065	     19.46123180	     75.71950321	    131.79817827	    100.28166833	     69.88710990	     22.65290476	     73.17541620	    125.67237164	     70.58014192
     10.78333330	      2.61307902	     11.27820779	      2.70280907	     -0.14779359	      0.89021970	      0.18090663	     20.20581598	     -3.10486650	      2.34547802	     38.28261385	      0.66815766	     26.99008063	      2.56421209	     -7.49999987	     52.97079105	     -0.99726458	     -7.78027494	     33.82854178	      0.59041944	    -12.49797463	     -1.94718816	     -7.49999987	    -21.01470633	     -3.48688835	      2.85874337	     55.70985017	     19.18703639	     75.18275536	    131.74560045	    100.32863615	     70.12954803	     22.97373444	     73.41119903	    125.87285720	     70.69310083
